<?xml version="1.0" encoding="utf-8"?>
<!-- Generator: Adobe Illustrator 25.2.1, SVG Export Plug-In . SVG Version: 6.00 Build 0)  -->
<svg version="1.2" baseProfile="tiny" id="Layer_1" xmlns="http://www.w3.org/2000/svg" xmlns:xlink="http://www.w3.org/1999/xlink"
	 x="0px" y="0px" viewBox="0 0 330 37" overflow="visible" xml:space="preserve">
<g>
	<path fill="#FFFFFF" d="M27.05,17.78c0-6.09-4.94-11.03-11.03-11.03c-2.12,0-4.11,0.6-5.79,1.64c0.02-0.99,0.03-1.64,0.03-1.64
		H4.99v10.83c0,0,0,0,0.01,0c0,0.06-0.01,0.13-0.01,0.19c0,6.09,4.94,11.03,11.03,11.03c2.11,0,4.09-0.6,5.76-1.63v1.63h5.26V18.38
		h-0.02C27.04,18.18,27.05,17.98,27.05,17.78 M16.02,23.55c-3.18,0-5.76-2.58-5.76-5.76c0-3.18,2.58-5.76,5.76-5.76
		s5.76,2.58,5.76,5.76C21.78,20.97,19.2,23.55,16.02,23.55"/>
	<g>
		<path fill="#FFFFFF" d="M47.39,1.7v7.64c0,0.21-0.01,0.49-0.02,0.84c-0.01,0.35-0.02,0.62-0.02,0.8c1.17-1.53,2.85-2.3,5.03-2.3
			c2.47,0,4.42,0.94,5.87,2.83c1.44,1.88,2.16,4.31,2.16,7.27c0,2.91-0.73,5.33-2.18,7.27c-1.46,1.94-3.4,2.9-5.85,2.9
			c-2.29,0-4.05-0.95-5.3-2.85v2.14v0.23h-6.12V1.7H47.39z M50.51,14.25c-0.96,0-1.75,0.42-2.38,1.27
			c-0.62,0.84-0.94,1.93-0.94,3.25c0,1.38,0.3,2.49,0.9,3.33c0.6,0.84,1.39,1.27,2.38,1.27c0.99,0,1.79-0.43,2.42-1.29
			c0.62-0.86,0.94-1.96,0.94-3.31c0-1.35-0.3-2.44-0.9-3.27C52.33,14.67,51.52,14.25,50.51,14.25z"/>
		<path fill="#FFFFFF" d="M67.23,1c1.01,0,1.83,0.3,2.46,0.9c0.62,0.6,0.94,1.31,0.94,2.14c0,0.83-0.31,1.55-0.94,2.14
			c-0.62,0.6-1.44,0.9-2.46,0.9c-0.99,0-1.79-0.3-2.42-0.9c-0.62-0.6-0.94-1.31-0.94-2.14c0-0.83,0.31-1.55,0.94-2.14
			C65.44,1.3,66.24,1,67.23,1z M70.5,28.48h-6.47V9.11h6.47V28.48z"/>
		<path fill="#FFFFFF" d="M81.61,28.48h-6.43V1.7h6.43V28.48z"/>
		<path fill="#FFFFFF" d="M93.11,8.76c2.26,0,3.94,0.84,5.03,2.53V9.34V9.11h6.16v16.88c0,2.96-0.91,5.37-2.73,7.23
			C99.75,35.07,97.33,36,94.32,36c-3.98,0-6.94-1.55-8.89-4.64l4.13-2.88c0.94,1.66,2.35,2.49,4.25,2.49c1.22,0,2.21-0.36,2.96-1.07
			c0.75-0.71,1.13-1.67,1.13-2.86v-0.82v-0.78c-1.2,1.4-2.84,2.11-4.95,2.11c-2.31,0-4.2-0.87-5.67-2.61c-1.47-1.74-2.2-4-2.2-6.78
			c0-2.75,0.76-5.01,2.28-6.76C88.88,9.63,90.8,8.76,93.11,8.76z M94.9,14.06c-0.94,0-1.71,0.4-2.34,1.21
			c-0.62,0.81-0.94,1.81-0.94,3c0,1.2,0.31,2.2,0.92,3c0.61,0.81,1.4,1.21,2.36,1.21c0.96,0,1.75-0.4,2.36-1.19
			c0.61-0.79,0.92-1.8,0.92-3.02c0-1.19-0.31-2.2-0.92-3C96.65,14.46,95.86,14.06,94.9,14.06z"/>
		<path fill="#FFFFFF" d="M112.13,1c1.01,0,1.83,0.3,2.46,0.9c0.62,0.6,0.94,1.31,0.94,2.14c0,0.83-0.31,1.55-0.94,2.14
			c-0.62,0.6-1.44,0.9-2.46,0.9c-0.99,0-1.79-0.3-2.42-0.9c-0.62-0.6-0.94-1.31-0.94-2.14c0-0.83,0.31-1.55,0.94-2.14
			C110.34,1.3,111.14,1,112.13,1z M115.4,28.48h-6.47V9.11h6.47V28.48z"/>
		<path fill="#FFFFFF" d="M131.77,8.68c1.82,0,3.32,0.59,4.5,1.77c1.18,1.18,1.77,2.75,1.77,4.7v13.33h-6.43V16.94
			c0-0.81-0.24-1.44-0.72-1.89c-0.48-0.45-1.09-0.68-1.81-0.68c-0.7,0-1.31,0.23-1.81,0.7c-0.51,0.47-0.76,1.09-0.76,1.87v11.54
			h-6.43V9.11h6.16v0.27v2.03c0.57-0.83,1.34-1.49,2.32-1.99C129.53,8.93,130.6,8.68,131.77,8.68z"/>
		<path fill="#FFFFFF" d="M150.52,8.6c2.52,0,4.62,0.92,6.29,2.77c1.68,1.85,2.51,4.25,2.51,7.21c0,0.94-0.03,1.73-0.08,2.38h-11.61
			c0.13,0.88,0.51,1.64,1.15,2.28c0.64,0.64,1.49,0.95,2.55,0.95c1.53,0,2.74-0.7,3.62-2.1l3.43,3.12c-1.74,2.62-4.27,3.94-7.6,3.94
			c-2.86,0-5.15-1-6.88-3c-1.73-2-2.59-4.46-2.59-7.37c0-2.88,0.84-5.3,2.53-7.25C145.54,9.57,147.76,8.6,150.52,8.6z M150.64,13.47
			c-0.96,0-1.72,0.36-2.28,1.07c-0.56,0.71-0.85,1.55-0.88,2.51h6.08c-0.03-1.12-0.3-1.99-0.82-2.63
			C152.22,13.79,151.52,13.47,150.64,13.47z"/>
		<path fill="#FFFFFF" d="M169.97,9.11h3.47v4.79h-3.43v14.58h-6.47V13.9h-2.42V9.11h2.42V3.69h6.43V9.11z"/>
	</g>
	<g>
		<path fill="#9D9998" d="M192.92,9.15c1.53,0,2.84,0.4,3.92,1.21c1.08,0.81,1.84,1.88,2.28,3.23c0-0.16-0.01-0.38-0.04-0.68
			c-0.03-0.3-0.05-0.57-0.06-0.82c-0.01-0.25-0.02-0.47-0.02-0.68V9.57h2.3v18.9H199v-1.87c0-0.05,0.04-0.78,0.12-2.18
			c-0.47,1.35-1.25,2.44-2.36,3.25c-1.1,0.82-2.42,1.23-3.96,1.23c-2.42,0-4.35-0.94-5.79-2.83c-1.44-1.88-2.16-4.24-2.16-7.07
			c0-2.78,0.75-5.12,2.24-7.02C188.59,10.1,190.53,9.15,192.92,9.15z M193.19,11.25c-1.69,0-3.1,0.75-4.23,2.24
			c-1.13,1.49-1.7,3.33-1.7,5.51c0,2.24,0.54,4.09,1.62,5.57c1.08,1.48,2.49,2.22,4.23,2.22c1.77,0,3.19-0.72,4.27-2.16
			c1.08-1.44,1.62-3.32,1.62-5.63c0-2.31-0.53-4.18-1.58-5.61C196.37,11.97,194.96,11.25,193.19,11.25z"/>
		<path fill="#9D9998" d="M210.62,28.48h-2.38V1.7h2.38V28.48z M214.63,18.27l8.03,10.21h-2.92l-7.8-10.21l7.05-8.69h2.88
			L214.63,18.27z"/>
		<path fill="#9D9998" d="M232.52,9.15c1.53,0,2.84,0.4,3.92,1.21c1.08,0.81,1.84,1.88,2.28,3.23c0-0.16-0.01-0.38-0.04-0.68
			c-0.03-0.3-0.05-0.57-0.06-0.82c-0.01-0.25-0.02-0.47-0.02-0.68V9.57h2.3v18.9h-2.3v-1.87c0-0.05,0.04-0.78,0.12-2.18
			c-0.47,1.35-1.25,2.44-2.36,3.25c-1.1,0.82-2.42,1.23-3.96,1.23c-2.42,0-4.35-0.94-5.79-2.83c-1.44-1.88-2.16-4.24-2.16-7.07
			c0-2.78,0.75-5.12,2.24-7.02C228.19,10.1,230.13,9.15,232.52,9.15z M232.79,11.25c-1.69,0-3.1,0.75-4.23,2.24
			c-1.13,1.49-1.7,3.33-1.7,5.51c0,2.24,0.54,4.09,1.62,5.57c1.08,1.48,2.49,2.22,4.23,2.22c1.77,0,3.19-0.72,4.27-2.16
			c1.08-1.44,1.62-3.32,1.62-5.63c0-2.31-0.53-4.18-1.58-5.61C235.97,11.97,234.56,11.25,232.79,11.25z"/>
		<path fill="#9D9998" d="M262.8,28.48h-2.3v-1.87c0-0.05,0.04-0.78,0.12-2.18c-0.47,1.35-1.25,2.44-2.36,3.25
			c-1.1,0.82-2.42,1.23-3.96,1.23c-2.42,0-4.35-0.94-5.79-2.83c-1.44-1.88-2.16-4.24-2.16-7.07c0-2.78,0.75-5.12,2.24-7.02
			c1.49-1.9,3.44-2.85,5.83-2.85c1.51,0,2.79,0.4,3.86,1.19c1.07,0.79,1.83,1.84,2.3,3.14c-0.08-0.7-0.12-1.39-0.12-2.07V1.7h2.34
			V28.48z M254.7,11.25c-1.69,0-3.1,0.75-4.23,2.24c-1.13,1.49-1.7,3.33-1.7,5.51c0,2.24,0.54,4.09,1.62,5.57
			c1.08,1.48,2.49,2.22,4.23,2.22c1.77,0,3.19-0.72,4.27-2.16c1.08-1.44,1.62-3.32,1.62-5.63c0-2.31-0.53-4.18-1.58-5.61
			C257.87,11.97,256.46,11.25,254.7,11.25z"/>
		<path fill="#9D9998" d="M276.41,9.15c2.23,0,4.05,0.86,5.44,2.57c1.39,1.72,2.09,3.95,2.09,6.7c0,0.52-0.01,0.94-0.04,1.25h-13.13
			c0.05,2,0.6,3.69,1.64,5.07c1.04,1.38,2.42,2.07,4.13,2.07c2.18,0,3.84-1.09,4.99-3.27l1.68,1.09c-1.51,2.88-3.75,4.33-6.74,4.33
			c-2.47,0-4.45-0.96-5.94-2.86c-1.49-1.91-2.24-4.28-2.24-7.11c0-2.78,0.75-5.11,2.24-7C271.99,10.09,273.96,9.15,276.41,9.15z
			 M276.41,11.25c-1.64,0-2.96,0.62-3.98,1.87c-1.01,1.25-1.57,2.81-1.68,4.68h10.84c-0.03-1.95-0.51-3.53-1.44-4.74
			C279.21,11.85,277.96,11.25,276.41,11.25z"/>
		<path fill="#9D9998" d="M309.11,9.15c1.84,0,3.36,0.56,4.56,1.68c1.2,1.12,1.79,2.68,1.79,4.68v12.98h-2.38V16.08
			c0-1.56-0.44-2.75-1.33-3.57c-0.88-0.82-1.96-1.23-3.24-1.23c-1.3,0-2.44,0.45-3.43,1.34c-0.99,0.9-1.48,2.05-1.48,3.45v12.39
			h-2.38V16.08c0-1.53-0.44-2.71-1.33-3.55c-0.88-0.83-1.96-1.25-3.24-1.25c-1.33,0-2.48,0.45-3.47,1.34
			c-0.99,0.9-1.48,2.05-1.48,3.45v12.39h-2.38V9.57h2.3v0.27v2.46c0.47-0.88,1.2-1.63,2.2-2.24c1-0.61,2.16-0.92,3.49-0.92
			c1.35,0,2.53,0.33,3.55,0.99c1.01,0.66,1.73,1.58,2.14,2.75c0.47-1.04,1.24-1.92,2.32-2.65C306.42,9.51,307.68,9.15,309.11,9.15z"
			/>
		<path fill="#9D9998" d="M323.49,2.48c0.42,0,0.77,0.15,1.07,0.45c0.3,0.3,0.45,0.66,0.45,1.07c0,0.44-0.15,0.81-0.45,1.11
			c-0.3,0.3-0.66,0.45-1.07,0.45c-0.44,0-0.81-0.15-1.11-0.45c-0.3-0.3-0.45-0.67-0.45-1.11c0-0.42,0.15-0.77,0.45-1.07
			C322.67,2.63,323.04,2.48,323.49,2.48z M324.66,28.48h-2.38V9.57h2.38V28.48z"/>
	</g>
</g>
</svg>
