<svg width="88" height="22" viewBox="0 0 88 22" fill="none" xmlns="http://www.w3.org/2000/svg">
<path d="M31.49 11.98H21.55C22.01 13.85 23.52 15.26 25.49 15.26C26.6 15.26 27.69 14.78 28.41 13.96L30.82 14.01C29.76 16.02 27.74 17.31 25.4 17.31C21.98 17.31 19.29 14.34 19.29 10.99C19.29 7.53 21.93 4.69 25.45 4.69C28.85 4.69 31.57 7.49 31.57 10.87C31.55 11.23 31.53 11.62 31.49 11.98ZM25.41 6.74C23.46 6.74 21.66 8.27 21.53 10.25H29.29C29.17 8.28 27.37 6.74 25.41 6.74ZM41.45 17.01V10.49C41.45 8.46 40.84 6.74 38.45 6.74C36.24 6.74 35.29 8.45 35.29 10.47V17.01H33.04V5.01H35.14V6.29H35.18C36.05 5.14 37.31 4.68 38.69 4.68C40.4 4.68 42.01 5.35 42.94 6.83C43.52 7.74 43.7 8.84 43.7 9.91V17.02L41.45 17.01ZM55.69 17.01V15.3H55.65C54.65 16.69 53.07 17.31 51.4 17.31C47.8 17.31 45.16 14.62 45.16 11.05C45.16 7.45 47.76 4.67 51.4 4.67C52.91 4.67 54.52 5.25 55.47 6.46H55.51V0.959999H57.76V17H55.69V17.01ZM51.52 6.74C49.14 6.74 47.4 8.69 47.4 11.03C47.4 13.28 49.2 15.26 51.5 15.26C53.84 15.26 55.68 13.35 55.68 11.03C55.69 8.63 53.98 6.74 51.52 6.74ZM64.29 21.03H61.96L63.71 16.78L58.92 5.01H61.35L64.89 14.33L68.51 5.01H70.94L64.29 21.03ZM77.34 17.31C73.8 17.31 70.86 14.47 70.86 10.91C70.86 7.37 73.88 4.67 77.34 4.67C80.85 4.67 83.82 7.4 83.82 10.95C83.82 14.39 80.98 17.31 77.34 17.31ZM77.34 6.74C75 6.74 73.11 8.65 73.11 10.99C73.11 13.33 75 15.26 77.34 15.26C79.7 15.26 81.57 13.31 81.57 10.97C81.56 8.63 79.67 6.74 77.34 6.74ZM85.65 17.01V0.969999H87.91V17.01H85.65V17.01ZM2.30997 14.65C2.39997 15.03 2.52997 15.34 2.66997 15.58C2.81997 15.82 2.99997 16.03 3.21997 16.22C3.93997 16.84 4.83997 17.16 5.90997 17.16C6.96997 17.16 7.95997 16.9 8.85997 16.4V14.24C7.92997 14.79 7.03997 15.07 6.19997 15.07C5.05997 15.07 4.46997 14.38 4.46997 13V7.12H8.24997V5.04H4.47997V1.19H2.24997V5.04H0.0899658V7.12H2.15997V12.45C2.15997 13.53 2.20997 14.27 2.30997 14.65ZM15.95 7.02C16.64 7.02 17.41 7.4 18.23 8.17L19.45 6.14C18.45 5.23 17.25 4.81 16.55 4.81H16.39C15.58 4.81 14.23 4.81 13.13 6.59L13.09 6.66L13.1 5.04H10.77V16.94H13.1V10.72C13.1 9.72 13.38 8.85 13.94 8.12C14.51 7.39 15.18 7.02 15.95 7.02Z" fill="#231F20"/>
</svg>
