<?xml version="1.0" encoding="utf-8"?>
<!-- Generator: Adobe Illustrator 25.2.1, SVG Export Plug-In . SVG Version: 6.00 Build 0)  -->
<svg version="1.2" baseProfile="tiny" id="Layer_1" xmlns="http://www.w3.org/2000/svg" xmlns:xlink="http://www.w3.org/1999/xlink"
	 x="0px" y="0px" viewBox="0 0 194 50" overflow="visible" xml:space="preserve">
<g>
	<path fill="#9D9998" d="M27.96,24.93c0-7.46-6.05-13.51-13.51-13.51c-2.6,0-5.03,0.74-7.09,2.01c0.02-1.21,0.03-2.01,0.03-2.01
		H0.95v13.27c0,0,0.01,0,0.01,0c0,0.08-0.01,0.16-0.01,0.23c0,7.46,6.05,13.5,13.51,13.5c2.59,0,5.01-0.73,7.06-1.99v1.99h6.45
		V25.66h-0.02C27.95,25.42,27.96,25.18,27.96,24.93 M14.46,31.99c-3.9,0-7.06-3.16-7.06-7.06c0-3.9,3.16-7.06,7.06-7.06
		s7.06,3.16,7.06,7.06C21.51,28.83,18.35,31.99,14.46,31.99"/>
	<g>
		<g>
			<path fill="#9D9998" d="M57.29,17.76v3.74c0,0.1,0,0.24-0.01,0.41c-0.01,0.17-0.01,0.3-0.01,0.39c0.57-0.75,1.39-1.13,2.46-1.13
				c1.21,0,2.16,0.46,2.87,1.38c0.71,0.92,1.06,2.11,1.06,3.56c0,1.42-0.36,2.61-1.07,3.56c-0.71,0.95-1.67,1.42-2.86,1.42
				c-1.12,0-1.98-0.46-2.59-1.39v1.05v0.11h-2.99v-13.1H57.29z M58.82,23.9c-0.47,0-0.86,0.21-1.16,0.62
				c-0.31,0.41-0.46,0.94-0.46,1.59c0,0.67,0.15,1.22,0.44,1.63c0.29,0.41,0.68,0.62,1.16,0.62c0.48,0,0.88-0.21,1.18-0.63
				c0.31-0.42,0.46-0.96,0.46-1.62c0-0.66-0.15-1.2-0.44-1.6C59.71,24.1,59.32,23.9,58.82,23.9z"/>
			<path fill="#9D9998" d="M67,17.41c0.5,0,0.9,0.15,1.2,0.44c0.31,0.29,0.46,0.64,0.46,1.05c0,0.41-0.15,0.76-0.46,1.05
				c-0.31,0.29-0.71,0.44-1.2,0.44c-0.48,0-0.88-0.15-1.18-0.44s-0.46-0.64-0.46-1.05c0-0.41,0.15-0.76,0.46-1.05
				C66.12,17.56,66.52,17.41,67,17.41z M68.6,30.86h-3.17v-9.48h3.17V30.86z"/>
			<path fill="#9D9998" d="M74.04,30.86h-3.15v-13.1h3.15V30.86z"/>
			<path fill="#9D9998" d="M79.67,21.21c1.11,0,1.93,0.41,2.46,1.24V21.5v-0.11h3.01v8.26c0,1.45-0.45,2.63-1.34,3.54
				c-0.89,0.91-2.07,1.36-3.55,1.36c-1.95,0-3.39-0.76-4.35-2.27l2.02-1.41c0.46,0.81,1.15,1.22,2.08,1.22
				c0.6,0,1.08-0.18,1.45-0.52c0.37-0.35,0.55-0.82,0.55-1.4v-0.4v-0.38c-0.58,0.69-1.39,1.03-2.42,1.03
				c-1.13,0-2.06-0.43-2.78-1.28c-0.72-0.85-1.08-1.96-1.08-3.32c0-1.35,0.37-2.45,1.12-3.31C77.6,21.64,78.53,21.21,79.67,21.21z
				 M80.54,23.8c-0.46,0-0.84,0.2-1.14,0.59c-0.31,0.39-0.46,0.88-0.46,1.47c0,0.59,0.15,1.07,0.45,1.47
				c0.3,0.39,0.68,0.59,1.15,0.59c0.47,0,0.86-0.19,1.15-0.58c0.3-0.39,0.45-0.88,0.45-1.48c0-0.58-0.15-1.07-0.45-1.47
				C81.4,24,81.01,23.8,80.54,23.8z"/>
			<path fill="#9D9998" d="M88.97,17.41c0.5,0,0.9,0.15,1.2,0.44c0.31,0.29,0.46,0.64,0.46,1.05c0,0.41-0.15,0.76-0.46,1.05
				s-0.71,0.44-1.2,0.44c-0.48,0-0.88-0.15-1.18-0.44c-0.31-0.29-0.46-0.64-0.46-1.05c0-0.41,0.15-0.76,0.46-1.05
				C88.1,17.56,88.49,17.41,88.97,17.41z M90.58,30.86h-3.17v-9.48h3.17V30.86z"/>
			<path fill="#9D9998" d="M98.59,21.17c0.89,0,1.62,0.29,2.2,0.87c0.58,0.58,0.87,1.34,0.87,2.3v6.52h-3.15v-5.65
				c0-0.39-0.12-0.7-0.35-0.92c-0.24-0.22-0.53-0.33-0.89-0.33c-0.34,0-0.64,0.11-0.89,0.34c-0.25,0.23-0.37,0.53-0.37,0.92v5.65
				h-3.15v-9.48h3.01v0.13v0.99c0.28-0.41,0.66-0.73,1.13-0.97C97.49,21.29,98.01,21.17,98.59,21.17z"/>
			<path fill="#9D9998" d="M107.76,21.13c1.23,0,2.26,0.45,3.08,1.35c0.82,0.9,1.23,2.08,1.23,3.53c0,0.46-0.01,0.85-0.04,1.16
				h-5.68c0.06,0.43,0.25,0.8,0.56,1.12c0.31,0.31,0.73,0.47,1.25,0.47c0.75,0,1.34-0.34,1.77-1.03l1.68,1.53
				c-0.85,1.28-2.09,1.93-3.72,1.93c-1.4,0-2.52-0.49-3.37-1.47c-0.85-0.98-1.27-2.18-1.27-3.6c0-1.41,0.41-2.59,1.24-3.55
				C105.32,21.61,106.41,21.13,107.76,21.13z M107.82,23.52c-0.47,0-0.84,0.18-1.12,0.52c-0.27,0.35-0.42,0.76-0.43,1.23h2.98
				c-0.01-0.55-0.15-0.98-0.4-1.29C108.59,23.67,108.25,23.52,107.82,23.52z"/>
			<path fill="#9D9998" d="M117.28,21.38h1.7v2.35h-1.68v7.13h-3.17v-7.13h-1.18v-2.35h1.18v-2.65h3.15V21.38z"/>
		</g>
		<g>
			<path fill="#9D9998" d="M128.51,21.4c0.75,0,1.39,0.2,1.92,0.59c0.53,0.39,0.9,0.92,1.12,1.58c0-0.08-0.01-0.19-0.02-0.33
				c-0.01-0.15-0.02-0.28-0.03-0.4c-0.01-0.12-0.01-0.23-0.01-0.33v-0.9h1.13v9.25h-1.13v-0.92c0-0.03,0.02-0.38,0.06-1.07
				c-0.23,0.66-0.61,1.19-1.15,1.59c-0.54,0.4-1.19,0.6-1.94,0.6c-1.18,0-2.13-0.46-2.83-1.38s-1.06-2.08-1.06-3.46
				c0-1.36,0.37-2.5,1.1-3.43C126.39,21.86,127.34,21.4,128.51,21.4z M128.64,22.43c-0.83,0-1.52,0.37-2.07,1.1
				c-0.55,0.73-0.83,1.63-0.83,2.7c0,1.09,0.26,2,0.79,2.73c0.53,0.72,1.22,1.09,2.07,1.09c0.86,0,1.56-0.35,2.09-1.06
				c0.53-0.71,0.79-1.62,0.79-2.76c0-1.13-0.26-2.05-0.77-2.75C130.2,22.78,129.51,22.43,128.64,22.43z"/>
			<path fill="#9D9998" d="M137.17,30.86h-1.16v-13.1h1.16V30.86z M139.13,25.86l3.93,5h-1.43l-3.81-5l3.45-4.25h1.41L139.13,25.86z
				"/>
			<path fill="#9D9998" d="M147.89,21.4c0.75,0,1.39,0.2,1.92,0.59c0.53,0.39,0.9,0.92,1.12,1.58c0-0.08-0.01-0.19-0.02-0.33
				c-0.01-0.15-0.02-0.28-0.03-0.4c-0.01-0.12-0.01-0.23-0.01-0.33v-0.9h1.13v9.25h-1.13v-0.92c0-0.03,0.02-0.38,0.06-1.07
				c-0.23,0.66-0.61,1.19-1.15,1.59c-0.54,0.4-1.19,0.6-1.94,0.6c-1.18,0-2.13-0.46-2.83-1.38s-1.06-2.08-1.06-3.46
				c0-1.36,0.37-2.5,1.1-3.43C145.77,21.86,146.72,21.4,147.89,21.4z M148.02,22.43c-0.83,0-1.52,0.37-2.07,1.1
				c-0.55,0.73-0.83,1.63-0.83,2.7c0,1.09,0.26,2,0.79,2.73c0.53,0.72,1.22,1.09,2.07,1.09c0.86,0,1.56-0.35,2.09-1.06
				c0.53-0.71,0.79-1.62,0.79-2.76c0-1.13-0.26-2.05-0.77-2.75C149.58,22.78,148.89,22.43,148.02,22.43z"/>
			<path fill="#9D9998" d="M162.71,30.86h-1.13v-0.92c0-0.03,0.02-0.38,0.06-1.07c-0.23,0.66-0.61,1.19-1.15,1.59
				c-0.54,0.4-1.19,0.6-1.94,0.6c-1.18,0-2.13-0.46-2.83-1.38s-1.06-2.08-1.06-3.46c0-1.36,0.37-2.5,1.1-3.43
				c0.73-0.93,1.68-1.39,2.85-1.39c0.74,0,1.37,0.19,1.89,0.58c0.52,0.39,0.9,0.9,1.13,1.54c-0.04-0.34-0.06-0.68-0.06-1.01v-4.75
				h1.14V30.86z M158.74,22.43c-0.83,0-1.52,0.37-2.07,1.1c-0.55,0.73-0.83,1.63-0.83,2.7c0,1.09,0.26,2,0.79,2.73
				c0.53,0.72,1.22,1.09,2.07,1.09c0.86,0,1.56-0.35,2.09-1.06c0.53-0.71,0.79-1.62,0.79-2.76c0-1.13-0.26-2.05-0.77-2.75
				C160.29,22.78,159.6,22.43,158.74,22.43z"/>
			<path fill="#9D9998" d="M169.36,21.4c1.09,0,1.98,0.42,2.66,1.26c0.68,0.84,1.02,1.93,1.02,3.28c0,0.25-0.01,0.46-0.02,0.61
				h-6.43c0.03,0.98,0.29,1.81,0.8,2.48c0.51,0.67,1.18,1.01,2.02,1.01c1.07,0,1.88-0.53,2.44-1.6l0.82,0.53
				c-0.74,1.41-1.84,2.12-3.3,2.12c-1.21,0-2.18-0.47-2.91-1.4c-0.73-0.93-1.1-2.09-1.1-3.48c0-1.36,0.37-2.5,1.1-3.42
				C167.2,21.86,168.17,21.4,169.36,21.4z M169.36,22.43c-0.8,0-1.45,0.31-1.95,0.92c-0.5,0.61-0.77,1.37-0.82,2.29h5.3
				c-0.01-0.95-0.25-1.73-0.71-2.32C170.74,22.73,170.13,22.43,169.36,22.43z"/>
			<path fill="#9D9998" d="M185.37,21.4c0.9,0,1.65,0.27,2.23,0.82c0.58,0.55,0.88,1.31,0.88,2.29v6.35h-1.16v-6.07
				c0-0.76-0.22-1.34-0.65-1.75c-0.43-0.4-0.96-0.6-1.58-0.6c-0.64,0-1.2,0.22-1.68,0.66c-0.48,0.44-0.72,1-0.72,1.69v6.07h-1.16
				v-6.07c0-0.75-0.22-1.33-0.65-1.74c-0.43-0.41-0.96-0.61-1.58-0.61c-0.65,0-1.21,0.22-1.7,0.66c-0.48,0.44-0.72,1-0.72,1.69v6.07
				h-1.16v-9.25h1.13v0.13v1.2c0.23-0.43,0.59-0.8,1.08-1.1c0.49-0.3,1.06-0.45,1.71-0.45c0.66,0,1.24,0.16,1.74,0.49
				c0.5,0.32,0.85,0.77,1.05,1.34c0.23-0.51,0.61-0.94,1.14-1.3C184.05,21.58,184.67,21.4,185.37,21.4z"/>
			<path fill="#9D9998" d="M192.4,18.14c0.2,0,0.38,0.07,0.52,0.22c0.15,0.15,0.22,0.32,0.22,0.52c0,0.22-0.07,0.4-0.22,0.54
				c-0.15,0.15-0.32,0.22-0.52,0.22c-0.22,0-0.4-0.07-0.54-0.22c-0.15-0.15-0.22-0.33-0.22-0.54c0-0.2,0.07-0.38,0.22-0.52
				C192.01,18.21,192.19,18.14,192.4,18.14z M192.98,30.86h-1.16v-9.25h1.16V30.86z"/>
		</g>
	</g>
	<line fill="none" stroke="#2C2C2C" stroke-miterlimit="10" x1="40.36" y1="1.18" x2="40.36" y2="48.82"/>
</g>
</svg>
