<!DOCTYPE svg PUBLIC "-//W3C//DTD SVG 1.1//EN" "http://www.w3.org/Graphics/SVG/1.1/DTD/svg11.dtd">
<!-- Uploaded to: SVG Repo, www.svgrepo.com, Transformed by: SVG Repo Mixer Tools -->
<svg width="800px" height="800px" viewBox="0 0 64 64" xmlns="http://www.w3.org/2000/svg" fill="#000000">
<g id="SVGRepo_bgCarrier" stroke-width="0"/>
<g id="SVGRepo_tracerCarrier" stroke-linecap="round" stroke-linejoin="round"/>
<g id="SVGRepo_iconCarrier"> <defs> <style>.cls-1{fill:#f27a1a;}.cls-2{fill:#eff3fe;}.cls-3{fill:#f27a1a;}.cls-4{fill:#f27a1a;}.cls-5{fill:#f27a1a;}</style> </defs> <g id="main"> <path class="cls-1" d="M53,32a20.91,20.91,0,0,1-7.82,16.34A11,11,0,0,0,41.05,56a7.72,7.72,0,0,0,0,1v3a3,3,0,0,1-3,3H26a3,3,0,0,1-3-3V57A7.72,7.72,0,0,0,23,56a11,11,0,0,0-4.13-7.66,21,21,0,0,1,0-32.68A11,11,0,0,0,23,8,7.72,7.72,0,0,0,23,7V4a3,3,0,0,1,3-3H38a3,3,0,0,1,3,3V7a7.72,7.72,0,0,0,0,1,11,11,0,0,0,4.13,7.66A20.91,20.91,0,0,1,53,32Z"/> <path class="cls-2" d="M48,32c0,.34,0,.67,0,1A16,16,0,0,1,33,48c-.33,0-.66,0-1,0s-.67,0-1,0A16,16,0,0,1,31,16c.33,0,.66,0,1,0s.67,0,1,0A16,16,0,0,1,48,31C48,31.33,48,31.66,48,32Z"/> <path class="cls-3" d="M41.05,8H23A7.72,7.72,0,0,0,23,7V4a3,3,0,0,1,3-3H38a3,3,0,0,1,3,3V7A7.72,7.72,0,0,0,41.05,8Z"/> <path class="cls-3" d="M41.05,56a7.72,7.72,0,0,0,0,1v3a3,3,0,0,1-3,3H26a3,3,0,0,1-3-3V57A7.72,7.72,0,0,0,23,56Z"/> <path class="cls-4" d="M38,31H33V23a1,1,0,0,0-2,0v9a1,1,0,0,0,1,1h6a1,1,0,0,0,0-2Z"/> <path class="cls-5" d="M33,16v3a1,1,0,0,1-2,0V16c.33,0,.66,0,1,0S32.67,16,33,16Z"/> <path class="cls-5" d="M33,45v3c-.33,0-.66,0-1,0s-.67,0-1,0V45a1,1,0,0,1,2,0Z"/> <path class="cls-5" d="M48,32c0,.34,0,.67,0,1H45a1,1,0,0,1,0-2h3C48,31.33,48,31.66,48,32Z"/> <path class="cls-5" d="M16,32c0,.34,0,.67,0,1h3a1,1,0,0,0,0-2H16C16,31.33,16,31.66,16,32Z"/> </g> </g>
</svg>