<!DOCTYPE svg PUBLIC "-//W3C//DTD SVG 1.1//EN" "http://www.w3.org/Graphics/SVG/1.1/DTD/svg11.dtd">
<!-- Uploaded to: SVG Repo, www.svgrepo.com, Transformed by: SVG Repo Mixer Tools -->
<svg fill="#f27a1a" version="1.1" id="Layer_1" xmlns="http://www.w3.org/2000/svg" xmlns:xlink="http://www.w3.org/1999/xlink" viewBox="0 0 512 512" xml:space="preserve" width="800px" height="800px">
<g id="SVGRepo_bgCarrier" stroke-width="0"/>
<g id="SVGRepo_tracerCarrier" stroke-linecap="round" stroke-linejoin="round"/>
<g id="SVGRepo_iconCarrier"> <g> <g> <rect x="68.713" y="395.636" width="69.818" height="116.364"/> </g> </g> <g> <g> <rect x="68.713" y="290.909" width="69.818" height="69.818"/> </g> </g> <g> <g> <path d="M165.357,171.757c-0.803-1.417-20.147-34.707-61.732-34.707c-41.585,0-60.927,33.29-61.73,34.708l-3.906,6.893L65.062,256 h77.13l27.072-77.349L165.357,171.757z"/> </g> </g> <g> <g> <rect x="227.887" y="221.091" width="69.818" height="69.818"/> </g> </g> <g> <g> <rect x="227.887" y="325.818" width="69.818" height="186.182"/> </g> </g> <g> <g> <path d="M378.126,54.06C376.597,51.853,339.789,0,262.836,0c-76.94,0-113.829,51.835-115.363,54.043l-6.776,9.756l81.588,122.383 h23.054v-75.636h34.909v75.636h18.601l86.23-122.085L378.126,54.06z"/> </g> </g> <g> <g> <rect x="386.641" y="337.455" width="69.818" height="174.545"/> </g> </g> <g> <g> <rect x="386.641" y="232.727" width="69.818" height="69.818"/> </g> </g> <g> <g> <polygon points="376.068,136.18 382.231,197.818 460.464,197.818 474.011,77.414 "/> </g> </g> </g>
</svg>