<!DOCTYPE svg PUBLIC "-//W3C//DTD SVG 1.1//EN" "http://www.w3.org/Graphics/SVG/1.1/DTD/svg11.dtd">
<!-- Uploaded to: SVG Repo, www.svgrepo.com, Transformed by: SVG Repo Mixer Tools -->
<svg fill="#f27a1a" width="800px" height="800px" viewBox="0 0 14 14" role="img" focusable="false" aria-hidden="true" xmlns="http://www.w3.org/2000/svg">
<g id="SVGRepo_bgCarrier" stroke-width="0"/>
<g id="SVGRepo_tracerCarrier" stroke-linecap="round" stroke-linejoin="round"/>
<g id="SVGRepo_iconCarrier">
<path d="m 4,6.4 0,1.2 6,0 0,-1.2 c 0,-0.66188 0.538125,-1.2 1.2,-1.2 l 0.6,0 C 11.8,4.20625 10.99375,3.4 10,3.4 l -6,0 C 3.00625,3.4 2.2,4.20625 2.2,5.2 l 0.6,0 C 3.461875,5.2 4,5.73812 4,6.4 Z m 7.8,-0.6 -0.6,0 c -0.331875,0 -0.6,0.26813 -0.6,0.6 l 0,1.8 -7.2,0 0,-1.8 C 3.4,6.06813 3.131875,5.8 2.8,5.8 l -0.6,0 C 1.538125,5.8 1,6.33813 1,7 1,7.4425 1.24375,7.825 1.6,8.03313 L 1.6,10.3 c 0,0.165 0.135,0.3 0.3,0.3 l 1.2,0 c 0.165,0 0.3,-0.135 0.3,-0.3 l 0,-0.3 7.2,0 0,0.3 c 0,0.165 0.135,0.3 0.3,0.3 l 1.2,0 c 0.165,0 0.3,-0.135 0.3,-0.3 l 0,-2.26687 C 12.75625,7.825 13,7.4425 13,7 13,6.33813 12.461875,5.8 11.8,5.8 Z"/>
</g>
</svg>