<!DOCTYPE svg PUBLIC "-//W3C//DTD SVG 1.1//EN" "http://www.w3.org/Graphics/SVG/1.1/DTD/svg11.dtd">
<!-- Uploaded to: SVG Repo, www.svgrepo.com, Transformed by: SVG Repo Mixer Tools -->
<svg fill="#f27a1a" height="800px" width="800px" version="1.1" id="Layer_1" xmlns="http://www.w3.org/2000/svg" xmlns:xlink="http://www.w3.org/1999/xlink" viewBox="0 0 503.608 503.608" xml:space="preserve">
<g id="SVGRepo_bgCarrier" stroke-width="0"/>
<g id="SVGRepo_tracerCarrier" stroke-linecap="round" stroke-linejoin="round"/>
<g id="SVGRepo_iconCarrier"> <g> <g> <g> <path d="M452.131,56.147c-46.651-11.642-114.763-13.564-161.951-4.6l-6.891,1.326c-10.995,2.107-22.36,4.289-33.532,6.01 l-6.345,0.982v157.713l31.576,4.851c15.922,3.895,35.286,6.421,55.825,7.655l13.513,61.532c0.848,3.844,4.255,6.589,8.2,6.589 h16.787v50.361h92.319l-0.017-59.308l-4.625-69.422c27.724-9.459,46.617-35.118,46.617-64.319v-33.574 C503.608,90.77,482.44,63.718,452.131,56.147z M369.313,281.419h-10.039l-11.096-50.52c1.981,0.05,3.987-0.008,5.976,0.017 c1.981,0.025,3.953,0.067,5.934,0.067c1.259,0,2.518-0.034,3.769-0.042c1.821-0.017,3.626,0.042,5.456,0.008V281.419z M436.461,147.124H386.1c-4.633,0-8.393-3.752-8.393-8.393c0-4.642,3.76-8.393,8.393-8.393h50.361 c4.633,0,8.393,3.752,8.393,8.393C444.854,143.372,441.094,147.124,436.461,147.124z M436.461,113.55H386.1 c-4.633,0-8.393-3.752-8.393-8.393c0-4.642,3.76-8.393,8.393-8.393h50.361c4.633,0,8.393,3.752,8.393,8.393 C444.854,109.798,441.094,113.55,436.461,113.55z"/> <path d="M160.508,96.763h-34.606c-18.516,0-33.574,15.058-33.574,33.574H8.393C3.76,130.337,0,134.089,0,138.73 c0,4.642,3.76,8.393,8.393,8.393h83.934c0,18.516,15.058,33.574,33.574,33.574h34.606c3.341,14.865,15.284,26.498,30.963,28.907 l35.152,5.397V62.442l-35.152,5.414C175.792,70.265,163.848,81.898,160.508,96.763z M159.475,163.911h-33.574 c-9.258,0-16.787-7.529-16.787-16.787v-16.787c0-9.258,7.529-16.787,16.787-16.787h33.574V163.911z"/> <polygon points="357.442,365.353 323.869,398.927 476.084,398.927 464.895,365.353 "/> <path d="M318.951,440.894c0,9.258,7.529,16.787,16.787,16.787h125.902c9.258,0,16.787-7.529,16.787-16.787v-25.18H318.951 V440.894z"/> </g> </g> </g> </g>
</svg>