<!DOCTYPE svg PUBLIC "-//W3C//DTD SVG 1.1//EN" "http://www.w3.org/Graphics/SVG/1.1/DTD/svg11.dtd">
<!-- Uploaded to: SVG Repo, www.svgrepo.com, Transformed by: SVG Repo Mixer Tools -->
<svg fill="#f27a1a" height="800px" width="800px" version="1.1" id="Capa_1" xmlns="http://www.w3.org/2000/svg" xmlns:xlink="http://www.w3.org/1999/xlink" viewBox="0 0 215.612 215.612" xml:space="preserve" stroke="#f27a1a">
<g id="SVGRepo_bgCarrier" stroke-width="0"/>
<g id="SVGRepo_tracerCarrier" stroke-linecap="round" stroke-linejoin="round"/>
<g id="SVGRepo_iconCarrier"> <path d="M100.306,196.322H60.408c-4.143,0-7.5-3.357-7.5-7.5v-48.036L40.66,175.517c-1.353,3.836-5.515,5.897-9.385,4.641 l-26.087-8.451c-1.928-0.624-3.521-2.003-4.417-3.821s-1.017-3.922-0.337-5.831L44.157,39.337c0.686-1.922,2.124-3.482,3.984-4.32 l13.333-6.007l-3.496,16.114c-0.868,4,1.632,7.958,5.618,8.892l5.17,1.212l-4.318,6.503c-1.818,2.738-1.642,6.342,0.436,8.89 l35.422,43.431V196.322z M128.379,54.536l7.23,10.887l-27.804,34.089L80.002,65.423l7.23-10.887 c1.358-2.047,1.629-4.628,0.725-6.912c-0.904-2.283-2.87-3.979-5.262-4.539l-8.494-1.991l4.069-18.756 c0.07-0.32,0.11-0.64,0.137-0.958l3.169-1.428c1.946-0.878,4.175-0.883,6.127-0.016c0.777,0.345,1.476,0.82,2.083,1.39l0.004-0.004 c0,0-0.098-0.117-0.338-0.294c0.045,0.033,4.661,3.305,18.353,3.305s18.308-3.271,18.353-3.305c-0.24,0.177-0.338,0.294-0.338,0.294 l0.004,0.004c0.607-0.57,1.306-1.044,2.083-1.39c1.951-0.867,4.18-0.862,6.127,0.016l3.169,1.428 c0.027,0.318,0.068,0.637,0.137,0.958l4.069,18.756l-8.494,1.991c-2.392,0.56-4.357,2.256-5.262,4.539 C126.75,49.908,127.021,52.489,128.379,54.536z M107.806,74.294l11.48-35.716c-3.244,0.464-7.04,0.754-11.48,0.754 s-8.236-0.291-11.48-0.754L107.806,74.294z M215.177,162.054L171.454,39.337c-0.686-1.922-2.124-3.482-3.984-4.32l-13.333-6.007 l3.496,16.114c0.868,4-1.632,7.958-5.618,8.892l-5.17,1.212l4.318,6.503c1.818,2.738,1.642,6.342-0.436,8.89l-35.422,43.431v82.272 h39.897c4.143,0,7.5-3.357,7.5-7.5v-48.036l12.248,34.731c1.353,3.835,5.51,5.897,9.385,4.641l26.087-8.451 c1.928-0.624,3.521-2.003,4.417-3.821S215.857,163.964,215.177,162.054z"/> </g>
</svg>