<!DOCTYPE svg PUBLIC "-//W3C//DTD SVG 1.1//EN" "http://www.w3.org/Graphics/SVG/1.1/DTD/svg11.dtd">
<!-- Uploaded to: SVG Repo, www.svgrepo.com, Transformed by: SVG Repo Mixer Tools -->
<svg fill="#f27a1a" width="800px" height="800px" viewBox="0 0 512 512" version="1.1" xml:space="preserve" xmlns="http://www.w3.org/2000/svg" xmlns:xlink="http://www.w3.org/1999/xlink">
<g id="SVGRepo_bgCarrier" stroke-width="0"/>
<g id="SVGRepo_tracerCarrier" stroke-linecap="round" stroke-linejoin="round"/>
<g id="SVGRepo_iconCarrier"> <g id="tshirt-clothes-heart-love-valentine"> <path d="M368,400v8c0,17.673-14.327,32-32,32H176c-17.673,0-32-14.327-32-32v-8c0-4.418,3.582-8,8-8h208 C364.418,392,368,395.582,368,400z M209.371,184c5.387,3.324,21.531,8,46.629,8c25.094,0,41.242-4.676,46.633-8 c-5.391-3.324-21.539-8-46.633-8C230.902,176,214.758,180.676,209.371,184z M417.36,198.64L368,248v120c0,4.418-3.582,8-8,8H152 c-4.418,0-8-3.582-8-8V248l-49.36-49.36c-12.504-12.504-12.504-32.776,0-45.28l43.28-43.28c4.08-4.08,8.56-7.52,13.52-10.32 l37.954-21.697c4.665-2.667,10.662-0.08,11.733,5.186C206.325,108.806,228.894,128,256,128s49.675-19.194,54.873-44.751 c1.071-5.265,7.068-7.852,11.733-5.186L360.56,99.76c4.96,2.8,9.44,6.24,13.52,10.32l43.28,43.28 C429.864,165.864,429.864,186.136,417.36,198.64z M305.375,245.024c-12.415-16.161-35.529-17.243-49.375-3.245 c-13.847-13.998-36.961-12.917-49.375,3.245c-10.275,13.376-8.235,32.626,3.614,44.605l32.5,32.855 c7.318,7.398,19.204,7.398,26.522,0l32.5-32.855C313.611,277.65,315.65,258.4,305.375,245.024z M320,184c0-23.328-57.449-24-64-24 s-64,0.672-64,24s57.449,24,64,24S320,207.328,320,184z"/> </g> <g id="Layer_1"/> </g>
</svg>