<svg width="24" height="24" viewBox="0 0 24 24" fill="none" xmlns="http://www.w3.org/2000/svg">
<path fill-rule="evenodd" clip-rule="evenodd" d="M18.325 11.8187C18.2663 11.9339 18.2663 12.0661 18.325 12.1813L18.8692 13.2495C19.1721 13.8443 18.9321 14.5532 18.3227 14.8634L17.2281 15.4207C17.1101 15.4808 17.0291 15.5877 17.006 15.7141L16.7919 16.8851C16.6727 17.5371 16.0444 17.9753 15.3611 17.8826L14.1343 17.7161C14.0019 17.6982 13.8709 17.739 13.7748 17.8281L12.8843 18.6548C12.6364 18.8849 12.3181 19 12 19C11.6818 19 11.3637 18.885 11.1157 18.6548L10.2252 17.8281C10.1291 17.739 9.99805 17.698 9.86574 17.7161L8.63888 17.8826C8.57764 17.8909 8.51674 17.8949 8.45667 17.8949C7.84704 17.895 7.31663 17.4787 7.20809 16.8851L6.99402 15.714C6.97091 15.5877 6.88995 15.4808 6.77186 15.4207L5.6773 14.8634C5.06787 14.5531 4.82781 13.8443 5.13079 13.2495L5.67496 12.1813C5.73367 12.0661 5.73367 11.9339 5.67496 11.8187L5.13082 10.7505C4.82784 10.1558 5.0679 9.44686 5.67733 9.13662L6.77189 8.57935C6.88995 8.51922 6.97091 8.41228 6.99402 8.28596L7.20809 7.11491C7.32732 6.4629 7.95567 6.02469 8.63885 6.11747L9.86571 6.28399C9.99811 6.30188 10.1291 6.26111 10.2252 6.17191L11.1157 5.34523C11.6116 4.8849 12.3884 4.88493 12.8843 5.34523L13.7748 6.17189C13.8709 6.26105 14.0018 6.30188 14.1342 6.28397L15.3611 6.11744C16.0441 6.02472 16.6727 6.46288 16.7919 7.11488L17.006 8.28598C17.0291 8.41228 17.11 8.51925 17.2281 8.57935L18.3227 9.13662C18.9321 9.44686 19.1721 10.1558 18.8692 10.7505L18.325 11.8187ZM11.8599 9.84682C11.8599 10.6631 11.1678 11.3271 10.3171 11.3271C9.46642 11.3271 8.77435 10.6631 8.77435 9.84682C8.77435 9.03056 9.46642 8.36646 10.3171 8.36646C11.1678 8.36646 11.8599 9.03056 11.8599 9.84682ZM14.4794 9.05004C14.6438 8.89238 14.9102 8.89238 15.0745 9.05004C15.2388 9.20773 15.2388 9.46334 15.0744 9.62101L9.52075 14.95C9.43862 15.0289 9.3309 15.0683 9.22324 15.0683C9.11558 15.0683 9.00789 15.0288 8.92574 14.95C8.76143 14.7923 8.76143 14.5367 8.92574 14.379L14.4794 9.05004ZM13.6832 12.6729C12.8325 12.6729 12.1404 13.337 12.1404 14.1532C12.1404 14.9695 12.8325 15.6336 13.6832 15.6336C14.5338 15.6336 15.2259 14.9695 15.2259 14.1532C15.2259 13.337 14.5338 12.6729 13.6832 12.6729ZM12.9819 14.1532C12.9819 14.5242 13.2964 14.8261 13.6831 14.8261C14.0698 14.8261 14.3844 14.5242 14.3844 14.1532C14.3844 13.7822 14.0698 13.4804 13.6831 13.4804C13.2964 13.4804 12.9819 13.7822 12.9819 14.1532ZM10.3171 9.17392C10.7038 9.17392 11.0184 9.4758 11.0184 9.84682C11.0184 10.2178 10.7038 10.5197 10.3171 10.5197C9.93043 10.5197 9.61585 10.2178 9.61585 9.84682C9.61585 9.4758 9.93043 9.17392 10.3171 9.17392Z" fill="#F27A1A"/>
</svg>
